<svg width="145" height="32" viewBox="0 0 145 32" fill="none" xmlns="http://www.w3.org/2000/svg">
<path d="M42.4559 21.3565C42.4559 22.0551 42.3125 22.5918 42.0257 22.9668C41.7463 23.3418 41.2794 23.5293 40.625 23.5293C40.0073 23.5293 39.5699 23.3418 39.3125 22.9668C39.0625 22.5918 38.9375 22.0551 38.9375 21.3565V9.69844C38.9375 8.9999 39.0625 8.46314 39.3125 8.08814C39.5699 7.71314 40.0073 7.52563 40.625 7.52563C41.2794 7.52563 41.7463 7.71314 42.0257 8.08814C42.3125 8.46314 42.4559 8.9999 42.4559 9.69844V21.3565Z" fill="#1D1E1C"/>
<path d="M43.524 17.9707C43.524 17.1912 43.6489 16.456 43.899 15.7648C44.1563 15.0662 44.5386 14.456 45.046 13.9339C45.5608 13.4118 46.2005 12.9964 46.9652 12.6876C47.7372 12.3787 48.6416 12.2244 49.6784 12.2244C50.6711 12.2244 51.5497 12.3677 52.3144 12.6545C53.0792 12.9413 53.7225 13.342 54.2445 13.8567C54.7666 14.364 55.1637 14.9706 55.4358 15.6765C55.7078 16.375 55.8439 17.1398 55.8439 17.9707C55.8439 18.7428 55.7151 19.4743 55.4578 20.1655C55.2005 20.8493 54.8144 21.4523 54.2997 21.9744C53.785 22.489 53.1416 22.9008 52.3696 23.2097C51.5975 23.5111 50.7004 23.6618 49.6784 23.6618C48.6711 23.6618 47.7814 23.5185 47.0092 23.2317C46.2445 22.9376 45.6012 22.5368 45.0792 22.0294C44.5644 21.5148 44.1747 20.9119 43.91 20.2207C43.6526 19.5222 43.524 18.7721 43.524 17.9707ZM47.1968 17.9707C47.1968 18.456 47.2408 18.9192 47.3291 19.3604C47.4173 19.7942 47.5571 20.1766 47.7482 20.5075C47.9467 20.8383 48.2041 21.103 48.5203 21.3015C48.8365 21.4927 49.2225 21.5883 49.6784 21.5883C50.0975 21.5883 50.4615 21.5001 50.7703 21.3236C51.0865 21.1472 51.3438 20.9008 51.5424 20.5846C51.7482 20.2685 51.9027 19.8898 52.0056 19.4486C52.1085 19.0001 52.16 18.5075 52.16 17.9707C52.16 17.4854 52.1122 17.0258 52.0167 16.592C51.9284 16.1509 51.785 15.7648 51.5864 15.4339C51.388 15.0957 51.1306 14.831 50.8144 14.6398C50.5056 14.4413 50.1269 14.342 49.6784 14.342C49.2298 14.342 48.8475 14.4375 48.5313 14.6288C48.2152 14.8199 47.9578 15.0809 47.7593 15.4118C47.5608 15.7428 47.4173 16.1287 47.3291 16.57C47.2408 17.0111 47.1968 17.478 47.1968 17.9707Z" fill="#1D1E1C"/>
<path d="M64.8972 21.4008C64.6986 21.7684 64.456 22.0809 64.1692 22.3383C63.8899 22.5956 63.5773 22.8089 63.2318 22.978C62.8935 23.1397 62.5296 23.261 62.1399 23.342C61.7575 23.4155 61.3641 23.4523 60.9597 23.4523C60.2832 23.4523 59.6656 23.3309 59.1067 23.0882C58.5479 22.8456 58.0663 22.4963 57.6619 22.0405C57.2648 21.5773 56.956 21.011 56.7354 20.342C56.5148 19.6728 56.4045 18.9081 56.4045 18.0478C56.4045 17.239 56.5075 16.4816 56.7134 15.7757C56.9192 15.0699 57.217 14.4559 57.6068 13.9339C58.0039 13.4118 58.4891 13 59.0627 12.6986C59.6361 12.3971 60.2906 12.2463 61.0259 12.2463C61.8641 12.2463 62.6068 12.4081 63.2538 12.7316C63.9082 13.0552 64.4708 13.5846 64.9414 14.3198V14.0332C64.9414 13.5037 65.0847 13.1067 65.3715 12.8419C65.6656 12.5699 66.07 12.4338 66.5847 12.4338C66.8935 12.4338 67.1545 12.4853 67.3678 12.5883C67.581 12.6839 67.7501 12.8309 67.8751 13.0295C68.0002 13.2206 68.0884 13.4596 68.1399 13.7464C68.1987 14.0257 68.228 14.3456 68.228 14.7059V22.0957C68.228 22.9927 68.1142 23.7941 67.8862 24.5C67.6656 25.2059 67.32 25.8015 66.8494 26.2868C66.3788 26.7721 65.7759 27.1397 65.0406 27.3898C64.3053 27.6471 63.4303 27.7757 62.4156 27.7757C61.7024 27.7757 61.07 27.7427 60.5185 27.6765C59.9744 27.6177 59.5038 27.5258 59.1067 27.4008C58.7097 27.261 58.4083 27.1067 58.2023 26.9375C58.0039 26.7684 57.9046 26.5478 57.9046 26.2758C57.9046 26.1213 57.9266 25.9743 57.9707 25.8346C58.0149 25.6949 58.081 25.5699 58.1692 25.4596C58.2648 25.3566 58.3862 25.2721 58.5333 25.2059C58.6876 25.1471 58.8751 25.1177 59.0957 25.1177C59.331 25.1177 59.5663 25.1324 59.8016 25.1618C60.0442 25.1912 60.2943 25.2206 60.5516 25.25C60.8163 25.2868 61.092 25.3198 61.3788 25.3493C61.6729 25.3787 61.9891 25.3934 62.3273 25.3934C62.7318 25.3934 63.092 25.353 63.4083 25.2721C63.7244 25.1912 63.9927 25.0478 64.2134 24.8419C64.434 24.6361 64.6031 24.3603 64.7207 24.0147C64.8384 23.6765 64.8972 23.2427 64.8972 22.7133V21.4008ZM64.8972 17.9707C64.8972 17.4338 64.8567 16.9449 64.7759 16.5037C64.7024 16.0625 64.5736 15.6876 64.3898 15.3787C64.206 15.0625 63.9597 14.8199 63.6509 14.6508C63.342 14.4743 62.956 14.3861 62.4928 14.3861C62.0369 14.3861 61.6583 14.478 61.3568 14.6618C61.0627 14.8456 60.8274 15.0993 60.6509 15.4228C60.4744 15.7464 60.3495 16.125 60.2759 16.5589C60.2097 16.9927 60.1767 17.4559 60.1767 17.9485C60.1767 19.0735 60.3752 19.9192 60.7722 20.4853C61.1692 21.0515 61.7464 21.3346 62.5038 21.3346C62.8567 21.3273 63.1767 21.261 63.4633 21.136C63.7575 21.0037 64.0112 20.8015 64.2244 20.5294C64.4376 20.2573 64.6031 19.9117 64.7207 19.4926C64.8384 19.0735 64.8972 18.5662 64.8972 17.9707Z" fill="#1D1E1C"/>
<path d="M69.241 17.9707C69.241 17.1912 69.366 16.456 69.616 15.7648C69.8734 15.0662 70.2557 14.456 70.7631 13.9339C71.2778 13.4118 71.9174 12.9964 72.6822 12.6876C73.4543 12.3787 74.3587 12.2244 75.3955 12.2244C76.388 12.2244 77.2667 12.3677 78.0314 12.6545C78.7961 12.9413 79.4395 13.342 79.9616 13.8567C80.4837 14.364 80.8807 14.9706 81.1527 15.6765C81.4248 16.375 81.5608 17.1398 81.5608 17.9707C81.5608 18.7428 81.4322 19.4743 81.1749 20.1655C80.9174 20.8493 80.5315 21.4523 80.0167 21.9744C79.502 22.489 78.8586 22.9008 78.0866 23.2097C77.3145 23.5111 76.4175 23.6618 75.3955 23.6618C74.388 23.6618 73.4983 23.5185 72.7263 23.2317C71.9616 22.9376 71.3182 22.5368 70.7961 22.0294C70.2815 21.5148 69.8918 20.9119 69.627 20.2207C69.3697 19.5222 69.241 18.7721 69.241 17.9707ZM72.9138 17.9707C72.9138 18.456 72.9579 18.9192 73.0462 19.3604C73.1344 19.7942 73.2741 20.1766 73.4653 20.5075C73.6638 20.8383 73.9211 21.103 74.2374 21.3015C74.5535 21.4927 74.9396 21.5883 75.3955 21.5883C75.8146 21.5883 76.1785 21.5001 76.4873 21.3236C76.8035 21.1472 77.0609 20.9008 77.2594 20.5846C77.4653 20.2685 77.6197 19.8898 77.7226 19.4486C77.8256 19.0001 77.8771 18.5075 77.8771 17.9707C77.8771 17.4854 77.8293 17.0258 77.7336 16.592C77.6455 16.1509 77.502 15.7648 77.3035 15.4339C77.105 15.0957 76.8476 14.831 76.5315 14.6398C76.2227 14.4413 75.8439 14.342 75.3955 14.342C74.9469 14.342 74.5645 14.4375 74.2484 14.6288C73.9322 14.8199 73.6748 15.0809 73.4763 15.4118C73.2778 15.7428 73.1344 16.1287 73.0462 16.57C72.9579 17.0111 72.9138 17.478 72.9138 17.9707Z" fill="#1D1E1C"/>
<path d="M86.2907 8.50724C86.2907 8.74989 86.2356 8.96679 86.1253 9.15797C86.015 9.3418 85.8716 9.49617 85.6952 9.62125C85.5187 9.74624 85.3128 9.84177 85.0775 9.90793C84.8496 9.96676 84.6143 9.99621 84.3716 9.99621C84.1143 9.99621 83.868 9.96309 83.6327 9.89692C83.4047 9.83076 83.2025 9.73523 83.0261 9.61014C82.8496 9.47781 82.7098 9.31973 82.6069 9.13591C82.504 8.95209 82.4525 8.74253 82.4525 8.50724C82.4525 8.294 82.5003 8.09915 82.5959 7.92268C82.6988 7.73886 82.8348 7.58077 83.004 7.44841C83.1731 7.31606 83.3753 7.21312 83.6106 7.13959C83.8459 7.06606 84.1032 7.0293 84.3827 7.0293C84.6253 7.0293 84.8606 7.06239 85.0886 7.12856C85.3239 7.19474 85.5297 7.29032 85.7062 7.41533C85.8826 7.54033 86.0224 7.69474 86.1253 7.87856C86.2356 8.06239 86.2907 8.27194 86.2907 8.50724ZM86.1253 21.3565C86.1253 22.055 85.9819 22.5918 85.6952 22.9668C85.4157 23.3418 84.9488 23.5293 84.2944 23.5293C83.6768 23.5293 83.2392 23.3418 82.9819 22.9668C82.7319 22.5918 82.6069 22.055 82.6069 21.3565V14.6065C82.6069 13.9079 82.7319 13.3712 82.9819 12.9962C83.2392 12.6213 83.6768 12.4337 84.2944 12.4337C84.9488 12.4337 85.4157 12.6213 85.6952 12.9962C85.9819 13.3712 86.1253 13.9079 86.1253 14.6065V21.3565Z" fill="#1D1E1C"/>
<path d="M91.1971 17.9485C91.1971 18.4413 91.2338 18.9007 91.3074 19.3273C91.3882 19.7537 91.5206 20.1287 91.7044 20.4523C91.8956 20.7684 92.1456 21.0184 92.4544 21.2022C92.7705 21.3861 93.1603 21.478 93.6235 21.478C94.05 21.478 94.4066 21.3898 94.6936 21.2133C94.9873 21.0295 95.2226 20.7794 95.3995 20.4633C95.5755 20.1397 95.7007 19.7611 95.7741 19.3273C95.8551 18.8934 95.8955 18.4228 95.8955 17.9155C95.8955 17.5111 95.8663 17.0993 95.8071 16.6802C95.7487 16.2537 95.6386 15.8677 95.4767 15.5221C95.3148 15.1765 95.0908 14.8934 94.8038 14.6728C94.5167 14.4523 94.1421 14.342 93.6787 14.342C93.2154 14.342 92.822 14.4155 92.4985 14.5626C92.1823 14.7096 91.925 14.9339 91.7265 15.2353C91.5352 15.5368 91.3992 15.9155 91.3184 16.3713C91.2375 16.8199 91.1971 17.3456 91.1971 17.9485ZM91.1861 14.6066C91.3699 14.217 91.6052 13.875 91.8919 13.5809C92.1786 13.2868 92.4949 13.0405 92.8405 12.8419C93.1861 12.6434 93.5463 12.4963 93.9213 12.4008C94.304 12.2978 94.6824 12.2463 95.0569 12.2463C95.7336 12.2463 96.3445 12.3971 96.8885 12.6986C97.4325 13 97.8955 13.4118 98.2776 13.9339C98.6673 14.4486 98.9656 15.0589 99.1718 15.7647C99.3769 16.4633 99.4805 17.2133 99.4805 18.0147C99.4805 18.8456 99.3694 19.6066 99.1492 20.2978C98.9365 20.989 98.6306 21.5846 98.2334 22.0845C97.8438 22.5773 97.3732 22.9632 96.8216 23.2427C96.2776 23.5221 95.6715 23.6618 95.0024 23.6618C94.1788 23.6618 93.4434 23.4706 92.7963 23.0882C92.1493 22.7059 91.6125 22.1692 91.1861 21.478V25.4486C91.1861 26.147 91.0426 26.6839 90.7559 27.0589C90.4764 27.4338 90.0096 27.6214 89.3551 27.6214C88.7375 27.6214 88.3 27.4338 88.0426 27.0589C87.7927 26.6839 87.6677 26.147 87.6677 25.4486V14.6066C87.6677 13.9081 87.7927 13.3713 88.0426 12.9964C88.3 12.6214 88.7375 12.4338 89.3551 12.4338C90.0096 12.4338 90.4764 12.6214 90.7559 12.9964C91.0426 13.3713 91.1861 13.9081 91.1861 14.6066Z" fill="#1D1E1C"/>
<path d="M103.361 15.3898C103.361 15.6765 103.486 15.9008 103.736 16.0626C103.986 16.217 104.331 16.3457 104.773 16.4486C105.192 16.5442 105.622 16.6361 106.063 16.7243C106.504 16.8126 106.935 16.9156 107.353 17.0332C107.772 17.1434 108.166 17.2758 108.534 17.4302C108.901 17.5846 109.224 17.7795 109.504 18.0148C109.784 18.2427 110.004 18.5222 110.166 18.853C110.328 19.1766 110.408 19.5663 110.408 20.0221C110.408 20.5957 110.291 21.1067 110.056 21.5552C109.82 21.9964 109.486 22.3714 109.052 22.6803C108.626 22.9891 108.115 23.228 107.519 23.3972C106.923 23.5663 106.265 23.6545 105.544 23.6618C104.861 23.6618 104.202 23.6178 103.57 23.5295C102.938 23.4486 102.376 23.3199 101.882 23.1434C101.398 22.967 101.008 22.7501 100.713 22.4927C100.42 22.228 100.273 21.9192 100.273 21.5663C100.273 21.2574 100.372 21.0184 100.57 20.8493C100.769 20.6803 101.022 20.5957 101.332 20.5957C101.449 20.5957 101.589 20.6177 101.751 20.6618C101.912 20.706 102.088 20.7611 102.28 20.8273C102.471 20.8934 102.673 20.967 102.887 21.0479C103.107 21.1214 103.335 21.1876 103.57 21.2464C103.864 21.3273 104.166 21.3935 104.474 21.445C104.791 21.489 105.114 21.5111 105.446 21.5111C105.651 21.5111 105.853 21.4927 106.052 21.456C106.25 21.4118 106.427 21.3494 106.582 21.2685C106.744 21.1802 106.875 21.0699 106.979 20.9376C107.081 20.8053 107.144 20.6435 107.166 20.4523C107.188 20.4082 107.207 20.364 107.221 20.3199C107.236 20.2758 107.243 20.2244 107.243 20.1655C107.243 19.9596 107.147 19.7758 106.956 19.614C106.773 19.4523 106.511 19.3236 106.173 19.228C105.607 19.0957 105.066 18.9744 104.552 18.8641C104.038 18.7538 103.56 18.6361 103.118 18.5111C102.684 18.3862 102.287 18.2427 101.927 18.0809C101.574 17.9192 101.272 17.7206 101.022 17.4854C100.78 17.2501 100.588 16.967 100.449 16.6361C100.316 16.3052 100.25 15.9045 100.25 15.4339C100.25 14.9266 100.364 14.4743 100.592 14.0773C100.827 13.6728 101.162 13.3347 101.596 13.0626C102.03 12.7905 102.555 12.5846 103.174 12.445C103.791 12.2979 104.489 12.2244 105.269 12.2244C106.665 12.2244 107.728 12.3935 108.456 12.7317C109.192 13.0626 109.56 13.4964 109.56 14.0332C109.56 14.3347 109.46 14.5663 109.261 14.728C109.063 14.8824 108.824 14.9596 108.545 14.9596C108.397 14.9596 108.243 14.9339 108.081 14.8824C107.927 14.8236 107.739 14.7611 107.519 14.695C107.298 14.6214 107.033 14.559 106.725 14.5075C106.424 14.4486 106.048 14.4192 105.6 14.4192C105.261 14.4192 104.952 14.4339 104.673 14.4633C104.401 14.4927 104.166 14.5442 103.967 14.6177C103.776 14.6913 103.625 14.7905 103.515 14.9156C103.412 15.0406 103.361 15.1986 103.361 15.3898Z" fill="#1D1E1C"/>
<path d="M114.885 19.4375C114.885 19.7831 114.929 20.0846 115.017 20.342C115.112 20.5993 115.241 20.8162 115.403 20.9927C115.565 21.1618 115.752 21.2905 115.965 21.3787C116.186 21.4596 116.422 21.5001 116.671 21.5001C116.966 21.5001 117.249 21.456 117.521 21.3677C117.793 21.2795 118.032 21.1434 118.238 20.9596C118.451 20.7758 118.62 20.5441 118.745 20.2647C118.87 19.9854 118.933 19.6581 118.933 19.2832V14.6066C118.933 13.9081 119.058 13.3713 119.307 12.9964C119.565 12.6214 120.003 12.4338 120.62 12.4338C121.274 12.4338 121.741 12.6214 122.021 12.9964C122.308 13.3713 122.451 13.9081 122.451 14.6066V21.3567C122.451 22.0552 122.308 22.592 122.021 22.9669C121.741 23.342 121.274 23.5295 120.62 23.5295C120.003 23.5295 119.565 23.342 119.307 22.9669C119.058 22.592 118.933 22.0552 118.933 21.3567C118.778 21.6949 118.576 22.0037 118.326 22.2832C118.083 22.5626 117.797 22.8052 117.465 23.0111C117.142 23.2096 116.782 23.364 116.385 23.4743C115.995 23.5846 115.572 23.6398 115.116 23.6398C114.624 23.6398 114.15 23.5552 113.693 23.3861C113.245 23.2096 112.848 22.9522 112.503 22.614C112.157 22.2685 111.881 21.8419 111.675 21.3346C111.469 20.8272 111.367 20.2353 111.367 19.5588V14.6066C111.367 13.9081 111.492 13.3713 111.741 12.9964C111.999 12.6214 112.436 12.4338 113.054 12.4338C113.708 12.4338 114.175 12.6214 114.455 12.9964C114.742 13.3713 114.885 13.9081 114.885 14.6066V19.4375Z" fill="#1D1E1C"/>
<path d="M124.048 14.6066C124.048 13.9081 124.173 13.3713 124.424 12.9964C124.68 12.6214 125.118 12.4338 125.736 12.4338C126.391 12.4338 126.857 12.6214 127.137 12.9964C127.423 13.3713 127.567 13.9081 127.567 14.6066C127.714 14.2537 127.912 13.9339 128.163 13.6471C128.42 13.353 128.711 13.103 129.033 12.8971C129.365 12.6912 129.721 12.5331 130.104 12.4228C130.486 12.3052 130.883 12.2463 131.295 12.2463C131.677 12.2463 132.052 12.2978 132.42 12.4008C132.794 12.4963 133.141 12.6544 133.457 12.875C133.78 13.0882 134.063 13.3603 134.306 13.6912C134.549 14.0221 134.736 14.4191 134.869 14.8824C135.096 14.3898 135.365 13.9743 135.673 13.6361C135.982 13.2978 136.317 13.0257 136.677 12.8199C137.037 12.614 137.413 12.4669 137.802 12.3787C138.2 12.2905 138.596 12.2463 138.993 12.2463C139.464 12.2463 139.912 12.331 140.339 12.5C140.773 12.6691 141.151 12.9265 141.475 13.2721C141.806 13.6103 142.067 14.0405 142.258 14.5626C142.456 15.0772 142.555 15.6802 142.555 16.3713V21.3566C142.555 22.0552 142.412 22.5919 142.125 22.9669C141.847 23.342 141.379 23.5294 140.725 23.5294C140.107 23.5294 139.67 23.342 139.413 22.9669C139.162 22.5919 139.037 22.0552 139.037 21.3566V16.5258C139.037 16.1949 138.993 15.9007 138.905 15.6434C138.817 15.3787 138.692 15.1581 138.53 14.9817C138.376 14.7979 138.192 14.6618 137.978 14.5736C137.766 14.478 137.537 14.4301 137.295 14.4301C136.993 14.4301 136.707 14.478 136.435 14.5736C136.163 14.6691 135.924 14.8162 135.718 15.0147C135.519 15.2133 135.357 15.4669 135.232 15.7757C135.114 16.0845 135.056 16.4559 135.056 16.8897V21.3566C135.056 22.0552 134.912 22.5919 134.626 22.9669C134.346 23.342 133.88 23.5294 133.224 23.5294C132.607 23.5294 132.169 23.342 131.912 22.9669C131.662 22.5919 131.537 22.0552 131.537 21.3566V16.7353C131.537 15.978 131.379 15.4045 131.064 15.0147C130.754 14.6251 130.331 14.4301 129.795 14.4301C129.479 14.4301 129.184 14.4816 128.912 14.5846C128.64 14.6876 128.405 14.8382 128.206 15.0368C128.008 15.2353 127.849 15.4816 127.732 15.7757C127.622 16.0699 127.567 16.4081 127.567 16.7904V21.3566C127.567 22.0552 127.423 22.5919 127.137 22.9669C126.857 23.342 126.391 23.5294 125.736 23.5294C125.118 23.5294 124.68 23.342 124.424 22.9669C124.173 22.5919 124.048 22.0552 124.048 21.3566V14.6066Z" fill="#1D1E1C"/>
<path d="M16 21.6471C12.8812 21.6471 10.3529 19.1189 10.3529 16.0001C10.3529 12.8813 12.8812 10.353 16 10.353C19.1188 10.353 21.6471 12.8813 21.6471 16.0001C21.6471 19.1189 19.1188 21.6471 16 21.6471Z" fill="#1D1E1C"/>
<path d="M5.05998 17.929C3.42351 18.2176 2.3018 19.7984 2.92998 21.3368C3.80701 23.4846 5.20619 25.3982 7.02013 26.8935C9.61393 29.0316 12.8855 30.1741 16.2464 30.1155C19.6073 30.0568 22.8371 28.8008 25.3547 26.5734C27.1153 25.0158 28.4469 23.0545 29.2485 20.8774C29.8226 19.318 28.6463 17.7773 27.0007 17.5461C25.3553 17.3148 23.8778 18.5126 23.065 19.962C22.6245 20.7476 22.0525 21.4603 21.3673 22.0665C19.9228 23.3446 18.0697 24.0651 16.1415 24.0988C14.2131 24.1324 12.336 23.477 10.8478 22.2502C10.1418 21.6682 9.54541 20.9759 9.07766 20.2061C8.2148 18.786 6.69645 17.6405 5.05998 17.929Z" fill="#1D1E1C"/>
<path d="M30.0085 17.7642C30.0806 17.1862 30.1176 16.5974 30.1176 16C30.1176 8.20301 23.797 1.88232 16 1.88232C8.20304 1.88232 1.88235 8.20301 1.88235 16C1.88235 16.7667 1.94348 17.5192 2.06114 18.2529C2.70959 17.3651 3.72166 16.7315 4.81483 16.5387C5.9976 16.3301 7.07255 16.617 7.98143 17.1532C7.92774 16.7765 7.89995 16.3915 7.89995 16C7.89995 11.5265 11.5265 7.89992 16 7.89992C20.4735 7.89992 24.1 11.5265 24.1 16C24.1 16.2949 24.0842 16.5862 24.0536 16.873C24.9432 16.3052 26.0077 15.9808 27.1973 16.148C28.2962 16.3025 29.3294 16.9001 30.0085 17.7642Z" fill="#1D1E1C"/>
</svg>
