<svg width="138" height="32" viewBox="0 0 138 32" fill="none" xmlns="http://www.w3.org/2000/svg">
<g clip-path="url(#clip0_1_206)">
<path d="M39.2291 23.1999H48.3113V20.6138H41.9986V8.53809H39.2291V23.1999Z" fill="#1D1E1C"/>
<path d="M53.769 23.5055C54.8687 23.5055 55.836 23.2611 56.6709 22.7724C57.5126 22.2768 58.1676 21.5947 58.636 20.7259C59.1111 19.8502 59.3487 18.8422 59.3487 17.7019C59.3487 16.5683 59.1145 15.5671 58.6462 14.6982C58.1778 13.8226 57.5227 13.137 56.681 12.6415C55.8462 12.146 54.8755 11.8982 53.769 11.8982C52.683 11.8982 51.7225 12.1426 50.8876 12.6313C50.0527 13.12 49.3977 13.8022 48.9225 14.6779C48.4474 15.5467 48.2098 16.5547 48.2098 17.7019C48.2098 18.8354 48.4406 19.84 48.9022 20.7156C49.3705 21.5845 50.0222 22.2667 50.857 22.7622C51.692 23.2577 52.6626 23.5055 53.769 23.5055ZM53.769 20.9193C52.907 20.9193 52.252 20.6308 51.804 20.0539C51.3627 19.4701 51.1422 18.6861 51.1422 17.7019C51.1422 16.7448 51.3526 15.9709 51.7734 15.3804C52.201 14.7831 52.8662 14.4844 53.769 14.4844C54.6447 14.4844 55.3031 14.7763 55.7443 15.36C56.1923 15.9438 56.4163 16.7244 56.4163 17.7019C56.4163 18.6454 56.1958 19.4192 55.7545 20.0233C55.3201 20.6206 54.6582 20.9193 53.769 20.9193Z" fill="#1D1E1C"/>
<path d="M64.8255 23.5055C65.3414 23.5055 65.8166 23.4444 66.251 23.3222C66.6922 23.2 67.0927 23.0269 67.4525 22.8029V23.9128C67.4661 24.32 67.3608 24.6594 67.1368 24.9309C66.9196 25.2092 66.6278 25.4163 66.2612 25.552C65.8946 25.6946 65.5043 25.7659 65.0903 25.7659C64.7034 25.7659 64.3436 25.681 64.011 25.5113C63.6852 25.3416 63.434 25.0939 63.2575 24.768L60.6918 26.0102C61.1126 26.7229 61.7133 27.2965 62.4939 27.7309C63.2746 28.1721 64.1332 28.3928 65.0699 28.3928C65.8777 28.3928 66.6278 28.2841 67.3201 28.0669C68.0125 27.8565 68.5962 27.5341 69.0714 27.0996C69.5533 26.6652 69.8826 26.112 70.059 25.44C70.1201 25.2024 70.1608 24.9615 70.1812 24.7171C70.2083 24.4796 70.2219 24.225 70.2219 23.9535V12.2036H67.7986V12.8146C67.4253 12.5227 67.001 12.2987 66.5259 12.1426C66.0575 11.9796 65.5383 11.8982 64.9681 11.8982C63.916 11.8982 62.9996 12.1494 62.219 12.6516C61.4384 13.154 60.8309 13.8429 60.3965 14.7186C59.9688 15.5874 59.755 16.5819 59.755 17.7019C59.755 18.8015 59.9654 19.7891 60.3863 20.6648C60.8139 21.5404 61.4078 22.2328 62.1681 22.7419C62.9283 23.2509 63.8142 23.5055 64.8255 23.5055ZM65.2735 21.0415C64.6762 21.0415 64.1875 20.8921 63.8074 20.5935C63.4273 20.2948 63.1455 19.8944 62.9623 19.392C62.779 18.8829 62.6874 18.3196 62.6874 17.7019C62.6874 17.0909 62.7824 16.5344 62.9725 16.032C63.1626 15.5229 63.4544 15.1191 63.8481 14.8204C64.2486 14.5149 64.7577 14.3622 65.3754 14.3622C66.2442 14.3622 66.8653 14.6711 67.2386 15.2888C67.612 15.8996 67.7986 16.704 67.7986 17.7019C67.7986 18.6996 67.6086 19.5074 67.2285 20.1251C66.8551 20.736 66.2035 21.0415 65.2735 21.0415Z" fill="#1D1E1C"/>
<path d="M76.7998 23.5055C77.8995 23.5055 78.8668 23.2611 79.7017 22.7724C80.5432 22.2768 81.1984 21.5947 81.6664 20.7259C82.1416 19.8502 82.3792 18.8422 82.3792 17.7019C82.3792 16.5683 82.1456 15.5671 81.6768 14.6982C81.2088 13.8226 80.5536 13.137 79.7118 12.6415C78.877 12.146 77.9062 11.8982 76.7998 11.8982C75.7138 11.8982 74.7533 12.1426 73.9184 12.6313C73.0835 13.12 72.4285 13.8022 71.9533 14.6779C71.4782 15.5467 71.2406 16.5547 71.2406 17.7019C71.2406 18.8354 71.4714 19.84 71.933 20.7156C72.4013 21.5845 73.053 22.2667 73.8878 22.7622C74.7228 23.2577 75.6934 23.5055 76.7998 23.5055ZM76.7998 20.9193C75.9378 20.9193 75.2827 20.6308 74.8347 20.0539C74.3935 19.4701 74.173 18.6861 74.173 17.7019C74.173 16.7448 74.3834 15.9709 74.8042 15.3804C75.2318 14.7831 75.897 14.4844 76.7998 14.4844C77.6755 14.4844 78.3339 14.7763 78.7751 15.36C79.2231 15.9438 79.4471 16.7244 79.4471 17.7019C79.4471 18.6454 79.2265 19.4192 78.7853 20.0233C78.3509 20.6206 77.689 20.9193 76.7998 20.9193Z" fill="#1D1E1C"/>
<path d="M83.6 10.6763H86.3696V8.23267H83.6V10.6763ZM83.6 23.1999H86.3696V12.2035H83.6V23.1999Z" fill="#1D1E1C"/>
<path d="M88.18 28.0873H90.9696V22.8029C91.3296 23.0269 91.7264 23.2 92.1608 23.3222C92.6024 23.4444 93.0808 23.5055 93.5968 23.5055C94.608 23.5055 95.4944 23.2509 96.2544 22.7419C97.0144 22.2328 97.6048 21.5404 98.0256 20.6648C98.4536 19.7891 98.6672 18.8015 98.6672 17.7019C98.6672 16.5819 98.4504 15.5874 98.016 14.7186C97.588 13.8429 96.984 13.154 96.2032 12.6516C95.4224 12.1494 94.5064 11.8982 93.4544 11.8982C92.884 11.8982 92.3616 11.9796 91.8864 12.1426C91.4176 12.2987 90.9968 12.5227 90.624 12.8146V12.2036H88.18V28.0873ZM93.1488 21.0415C92.2256 21.0415 91.5744 20.736 91.1936 20.1251C90.8136 19.5074 90.624 18.6996 90.624 17.7019C90.624 16.704 90.8104 15.8996 91.184 15.2888C91.564 14.6711 92.1848 14.3622 93.0472 14.3622C93.6648 14.3622 94.1704 14.5149 94.564 14.8204C94.9648 15.1191 95.26 15.5229 95.4496 16.032C95.64 16.5344 95.7352 17.0909 95.7352 17.7019C95.7352 18.3196 95.6432 18.8829 95.46 19.392C95.2768 19.8944 94.9952 20.2948 94.6152 20.5935C94.2352 20.8921 93.7464 21.0415 93.1488 21.0415Z" fill="#1D1E1C"/>
<path d="M103.685 23.5055C105.123 23.5055 106.25 23.1831 107.065 22.5382C107.879 21.8933 108.286 21.0076 108.286 19.8808C108.286 19.0255 108.022 18.3501 107.493 17.8546C106.97 17.3591 106.081 16.9484 104.825 16.6226C103.97 16.4053 103.331 16.2288 102.91 16.0931C102.497 15.9574 102.222 15.825 102.086 15.696C101.957 15.5671 101.893 15.4076 101.893 15.2175C101.893 14.8984 102.045 14.6541 102.35 14.4844C102.663 14.3147 103.074 14.2468 103.582 14.2808C104.662 14.3622 105.253 14.8238 105.354 15.6655L108.185 15.1564C108.042 14.1586 107.554 13.3678 106.718 12.784C105.884 12.1935 104.818 11.8982 103.522 11.8982C102.191 11.8982 101.129 12.2104 100.334 12.8349C99.5408 13.4594 99.1432 14.3011 99.1432 15.36C99.1432 16.2017 99.4184 16.8669 99.968 17.3556C100.518 17.8376 101.465 18.2516 102.809 18.5979C103.603 18.8083 104.186 18.978 104.56 19.1069C104.94 19.2359 105.185 19.3683 105.293 19.504C105.402 19.633 105.456 19.8061 105.456 20.0233C105.456 20.3695 105.32 20.641 105.049 20.8379C104.778 21.0279 104.39 21.1229 103.888 21.1229C103.277 21.1229 102.771 20.977 102.371 20.6851C101.978 20.3932 101.722 19.9894 101.607 19.4735L98.7768 19.9011C98.96 21.0483 99.476 21.9375 100.325 22.5688C101.18 23.1932 102.3 23.5055 103.685 23.5055Z" fill="#1D1E1C"/>
<path d="M113.395 23.5259C114.19 23.5259 114.882 23.3935 115.473 23.1287C116.063 22.864 116.558 22.5111 116.959 22.0699V23.2H119.402V12.2036H116.613V17.7833C116.613 18.4621 116.534 19.0119 116.378 19.4327C116.23 19.8468 116.036 20.1624 115.798 20.3796C115.561 20.5901 115.306 20.7326 115.034 20.8073C114.763 20.8819 114.509 20.9193 114.271 20.9193C113.681 20.9193 113.222 20.7869 112.897 20.5222C112.578 20.2575 112.346 19.9283 112.204 19.5346C112.062 19.1408 111.977 18.7506 111.95 18.3636C111.922 17.9699 111.909 17.6475 111.909 17.3963V12.2036H109.098V18.3739C109.098 18.5571 109.112 18.849 109.139 19.2495C109.166 19.6499 109.245 20.0946 109.374 20.5833C109.502 21.0652 109.716 21.5302 110.015 21.9782C110.321 22.4262 110.745 22.7961 111.288 23.088C111.83 23.3799 112.534 23.5259 113.395 23.5259Z" fill="#1D1E1C"/>
<path d="M121.006 23.2001H123.796V16.5411C123.796 15.9099 123.969 15.3974 124.315 15.0037C124.668 14.6032 125.133 14.403 125.71 14.403C126.314 14.403 126.786 14.6066 127.126 15.0139C127.471 15.4144 127.645 15.9778 127.645 16.7041V23.2001H130.414V16.5411C130.414 15.9099 130.587 15.3974 130.934 15.0037C131.286 14.6032 131.751 14.403 132.328 14.403C132.933 14.403 133.404 14.6066 133.743 15.0139C134.09 15.4144 134.263 15.9778 134.263 16.7041V23.2001H137.032V15.971C137.032 14.7695 136.71 13.7989 136.065 13.059C135.427 12.3123 134.48 11.939 133.224 11.939C132.518 11.939 131.87 12.0917 131.279 12.3971C130.689 12.7026 130.218 13.1201 129.864 13.6495C129.579 13.1337 129.172 12.7196 128.642 12.4074C128.113 12.0951 127.454 11.939 126.667 11.939C126.002 11.939 125.391 12.0714 124.834 12.3361C124.278 12.594 123.816 12.9504 123.45 13.4051V12.2037H121.006V23.2001Z" fill="#1D1E1C"/>
<path d="M16 0C7.16344 0 0 7.16344 0 16C8.83656 16 16 8.83656 16 0Z" fill="#1D1E1C"/>
<path d="M16 32C24.8366 32 32 24.8366 32 16C23.1634 16 16 23.1634 16 32Z" fill="#1D1E1C"/>
<path d="M16 0C24.8366 0 32 7.16344 32 16C23.1634 16 16 8.83656 16 0Z" fill="#1D1E1C"/>
<path d="M16 32C7.16344 32 -7.72516e-07 24.8366 0 16C8.83656 16 16 23.1634 16 32Z" fill="#1D1E1C"/>
</g>
<defs>
<clipPath id="clip0_1_206">
<rect width="137.6" height="32" fill="white"/>
</clipPath>
</defs>
</svg>
