<svg width="154" height="28" viewBox="0 0 154 28" fill="none" xmlns="http://www.w3.org/2000/svg">
<g clip-path="url(#clip0_1_220)">
<path d="M14 28C21.7322 28 28 21.7322 28 14V4.2C28 3.08609 27.5575 2.0178 26.7698 1.23015C25.9822 0.442499 24.9139 0 23.8 0L14.7 0V6.1418C14.7 7.5432 14.7854 8.995 15.5204 10.1878C16.0466 11.0426 16.7505 11.7743 17.5843 12.3332C18.4182 12.892 19.3625 13.265 20.3532 13.4267L20.6213 13.4701C20.7318 13.5079 20.8278 13.5793 20.8957 13.6743C20.9636 13.7693 21.0002 13.8832 21.0002 14C21.0002 14.1168 20.9636 14.2307 20.8957 14.3257C20.8278 14.4207 20.7318 14.4921 20.6213 14.5299L20.3532 14.5733C18.9057 14.8098 17.5691 15.4949 16.532 16.532C15.4949 17.5691 14.8098 18.9057 14.5733 20.3532L14.5299 20.6213C14.4921 20.7318 14.4207 20.8278 14.3257 20.8957C14.2307 20.9636 14.1168 21.0002 14 21.0002C13.8832 21.0002 13.7693 20.9636 13.6743 20.8957C13.5793 20.8278 13.5079 20.7318 13.4701 20.6213L13.4267 20.3532C13.2649 19.3625 12.8919 18.4182 12.3331 17.5844C11.7743 16.7505 11.0426 16.0466 10.1878 15.5204C8.995 14.7854 7.5432 14.7 6.1418 14.7H0.0167999C0.3829 22.1067 6.503 28 14 28Z" fill="#1D1E1C"/>
<path d="M0 13.3H6.1418C7.5432 13.3 8.995 13.2146 10.1878 12.4796C11.1202 11.9051 11.9051 11.1202 12.4796 10.1878C13.2146 8.995 13.3 7.5432 13.3 6.1418V0H4.2C3.08609 0 2.0178 0.442499 1.23015 1.23015C0.442499 2.0178 0 3.08609 0 4.2L0 13.3ZM32.5185 1.4C32.5185 1.7713 32.371 2.1274 32.1084 2.38995C31.8459 2.6525 31.4898 2.8 31.1185 2.8C30.7472 2.8 30.3911 2.6525 30.1285 2.38995C29.866 2.1274 29.7185 1.7713 29.7185 1.4C29.7185 1.0287 29.866 0.672601 30.1285 0.41005C30.3911 0.1475 30.7472 0 31.1185 0C31.4898 0 31.8459 0.1475 32.1084 0.41005C32.371 0.672601 32.5185 1.0287 32.5185 1.4ZM148.198 8.4728C152.111 8.4728 154 11.2063 154 14.3724V20.3189H149.904V15.078C149.904 13.643 149.381 12.4586 147.879 12.4586C146.378 12.4586 145.877 13.643 145.877 15.078V20.3182H141.781V15.078C141.781 13.643 141.281 12.4586 139.779 12.4586C138.277 12.4586 137.754 13.643 137.754 15.078V20.3182H133.659V14.3717C133.659 11.2056 135.547 8.4721 139.46 8.4721C141.6 8.4721 143.146 9.3149 143.852 10.7044C144.603 9.3149 146.241 8.4714 148.198 8.4714V8.4728ZM126.299 16.674C127.618 16.674 128.188 15.4665 128.188 14.0308V8.9278H132.283V14.532C132.283 17.8808 130.326 20.6605 126.299 20.6605C122.271 20.6605 120.315 17.8815 120.315 14.532V8.9278H124.41V14.0308C124.41 15.4658 124.979 16.674 126.299 16.674ZM114.292 20.6829C111.721 20.6829 110.06 19.7946 109.082 18.0635L112.04 16.4003C112.449 17.129 113.063 17.4937 114.087 17.4937C114.929 17.4937 115.316 17.1976 115.316 16.8329C115.316 15.4434 109.309 16.856 109.309 12.4369C109.309 10.2949 111.129 8.5638 114.224 8.5638C116.931 8.5638 118.411 9.8847 119.071 11.1608L116.112 12.8464C115.863 12.1632 115.088 11.753 114.315 11.753C113.723 11.753 113.405 12.0036 113.405 12.3452C113.405 13.7578 119.412 12.4593 119.412 16.7419C119.412 19.1338 117.068 20.6829 114.292 20.6829ZM99.9831 25.5584H95.8874V14.6006C95.8874 11.1146 98.504 8.5862 102.145 8.5862C105.694 8.5862 108.402 11.2973 108.402 14.6006C108.402 18.2455 105.99 20.6605 102.372 20.6605C101.53 20.6605 100.689 20.4099 99.9831 20.0221V25.5584ZM102.145 16.8105C103.442 16.8105 104.306 15.8081 104.306 14.623C104.306 13.4162 103.442 12.4362 102.145 12.4362C100.848 12.4362 99.9831 13.4162 99.9831 14.6237C99.9831 15.8081 100.848 16.8105 102.145 16.8105ZM91.7847 7.721C90.4421 7.721 89.3277 6.6045 89.3277 5.2605C89.3277 3.9165 90.4421 2.8 91.7847 2.8C93.1273 2.8 94.2424 3.9165 94.2424 5.2605C94.2424 6.6045 93.1273 7.721 91.7847 7.721ZM89.7372 8.9278H93.8329V20.3189H89.7372V8.9278ZM81.879 20.6605C78.3293 20.6605 75.6217 17.927 75.6217 14.6006C75.6217 11.2973 78.3293 8.5638 81.879 8.5638C85.4287 8.5638 88.1363 11.2973 88.1363 14.6006C88.1363 17.927 85.4287 20.6605 81.879 20.6605ZM81.879 16.8105C83.1761 16.8105 84.0406 15.8081 84.0406 14.623C84.0406 13.4162 83.1761 12.4138 81.879 12.4138C80.5819 12.4138 79.7174 13.4162 79.7174 14.623C79.7174 15.8081 80.5819 16.8105 81.879 16.8105ZM67.8881 25.9C65.0671 25.9 63.0189 24.647 61.9724 22.414L65.3625 20.5919C65.7265 21.3668 66.409 22.1641 67.8195 22.1641C69.2993 22.1641 70.2772 21.2296 70.3913 19.5895C69.8453 20.0683 68.9801 20.4323 67.6837 20.4323C64.5204 20.4323 61.9717 17.9949 61.9717 14.5775C61.9717 11.2749 64.68 8.5862 68.2297 8.5862C71.8704 8.5862 74.487 11.1153 74.487 14.6006V19.1114C74.487 23.212 71.6422 25.9 67.8881 25.9ZM68.1611 16.583C69.3896 16.583 70.3227 15.7395 70.3227 14.4865C70.3227 13.2566 69.3903 12.4362 68.1611 12.4362C66.955 12.4362 65.9995 13.2566 65.9995 14.4872C65.9995 15.7402 66.955 16.5823 68.1611 16.5823V16.583ZM55.0249 20.6605C51.4752 20.6605 48.7669 17.927 48.7669 14.6006C48.7669 11.2973 51.4752 8.5638 55.0249 8.5638C58.5739 8.5638 61.2822 11.2973 61.2822 14.6006C61.2822 17.927 58.5746 20.6605 55.0249 20.6605ZM55.0249 16.8105C56.322 16.8105 57.1865 15.8081 57.1865 14.623C57.1865 13.4162 56.322 12.4138 55.0249 12.4138C53.7278 12.4138 52.8633 13.4162 52.8633 14.623C52.8633 15.8081 53.7278 16.8105 55.0249 16.8105ZM41.3091 4.942V16.4458H48.09V20.3189H40.74C38.1465 20.3189 37.1 18.9518 37.1 16.7874V4.942H41.3091Z" fill="#1D1E1C"/>
</g>
<defs>
<clipPath id="clip0_1_220">
<rect width="154" height="28" fill="white"/>
</clipPath>
</defs>
</svg>
